<svg xmlns="http://www.w3.org/2000/svg" width="35.657" height="35.758" viewBox="0 0 35.657 35.758">
  <g id="组_1" data-name="组 1" transform="translate(-38.344 -33.345)">
    <path id="路径_1" data-name="路径 1" d="M51.516,64.344a2.844,2.844,0,0,1,2.5,1.48l3.251,5.945,5.945,3.251a2.845,2.845,0,0,1,0,4.993l-5.945,3.251-3.251,5.945a2.845,2.845,0,0,1-4.993,0l-3.251-5.945-5.945-3.251a2.845,2.845,0,0,1,0-4.993l5.945-3.251,3.251-5.945A2.844,2.844,0,0,1,51.516,64.344Zm8.148,13.173-4.536-2.481A2.84,2.84,0,0,1,54,73.9l-2.481-4.536L49.036,73.9A2.84,2.84,0,0,1,47.9,75.036l-4.536,2.481L47.9,80a2.84,2.84,0,0,1,1.131,1.131l2.481,4.536L54,81.128A2.84,2.84,0,0,1,55.128,80Z" transform="translate(0 -25.952)" fill="#aa0601"/>
    <path id="路径_2" data-name="路径 2" d="M175.432,33.621l2,3.665a.532.532,0,0,0,.211.211l3.665,2a.531.531,0,0,1,0,.931l-3.665,2a.532.532,0,0,0-.211.211l-2,3.665a.531.531,0,0,1-.931,0l-2-3.665a.532.532,0,0,0-.211-.211l-3.665-2a.531.531,0,0,1,0-.931l3.665-2a.532.532,0,0,0,.211-.211l2-3.665A.531.531,0,0,1,175.432,33.621Z" transform="translate(-107.589)" fill="#aa0601"/>
    <path id="路径_3" data-name="路径 3" d="M175.432,165.621l2,3.665a.532.532,0,0,0,.211.211l3.665,2a.531.531,0,0,1,0,.931l-3.665,2a.532.532,0,0,0-.211.211l-2,3.665a.531.531,0,0,1-.931,0l-2-3.665a.532.532,0,0,0-.211-.211l-3.665-2a.531.531,0,0,1,0-.931l3.665-2a.532.532,0,0,0,.211-.211l2-3.665A.531.531,0,0,1,175.432,165.621Z" transform="translate(-107.589 -109.487)" fill="#aa0601"/>
  </g>
</svg>
